<svg xmlns="http://www.w3.org/2000/svg" xmlns:xlink="http://www.w3.org/1999/xlink" id="Capa_1" x="0px" y="0px" viewBox="0 0 306 95.8" style="enable-background:new 0 0 306 95.8;" xml:space="preserve"><style type="text/css">	.st0{fill:#FFDB7C;}	.st1{fill:#C6D41F;}	.st2{fill:#006BAC;}	.st3{fill-rule:evenodd;clip-rule:evenodd;fill:#010202;}	.st4{fill:#010202;}</style><g>	<path class="st0" d="M16.3,91c-4.9-30.8,1.7-58.8,15.9-84c4.6,1.4,17,1.5,21.6,2.8C39,35,23.3,64.1,26.5,95.8  C23.1,94.3,19.7,92.7,16.3,91L16.3,91z"></path>	<path class="st1" d="M1.1,85.5C9.7,74,19,66.6,33.3,58.9c20.9-11.1,35.9-14.2,59.5-12l2.6,9c-21.7-2-47.9,6.9-54.9,10.2  C27.2,72.7,16.1,81.5,6.9,93.1C4.9,90.6,3,88,1.1,85.5L1.1,85.5z"></path>	<path class="st2" d="M72.2,65.8C61.6,36.5,42.2,15.2,17.5,0C14.1,3.4,3.4,9.5,0,12.9c25.2,15,53,32.8,65.6,62  C67.9,72,70.1,68.9,72.2,65.8L72.2,65.8z"></path>	<path class="st0" d="M14.7,71.1c0-23.1,6.4-44.4,17.5-64.1c4.6,1.4,17,1.5,21.6,2.8C44.6,25.4,35.1,42.6,30,61c0,0-4.8,2.6-7.8,4.6  C19.2,67.5,14.7,71.1,14.7,71.1L14.7,71.1z"></path>	<path class="st3" d="M53,81.9h1.6c1.2,0,2.9,0.6,2.9,2.3c0,1.7-1.5,2.3-2.6,2.3H53V81.9L53,81.9z M51.1,93.4H53v-5.3h1.9  c2.4,0,4.7-1,4.7-4c0-3-2.2-4-5-4h-3.5V93.4L51.1,93.4z"></path>	<polygon class="st4" points="61.8,93.4 69.2,93.4 69.2,91.8 63.7,91.8 63.7,87.4 68.7,87.4 68.7,85.8 63.7,85.8 63.7,81.9   69.2,81.9 69.2,80.2 61.8,80.2 61.8,93.4  "></polygon>	<path class="st3" d="M72.1,93.4H74v-5.9h1.1c1,0,1.6,0,2.2,1.3l2,4.6h2.2L79,88.2c-0.4-0.8-0.7-1.1-1.3-1.3v0  c1.5-0.3,2.7-1.4,2.7-3c0-3.2-2.5-3.6-5.1-3.6h-3.2V93.4L72.1,93.4z M74,81.9h1.8c1.7,0,2.6,0.8,2.6,1.9c0,1.3-1.1,2.1-2.9,2.1H74  V81.9L74,81.9z"></path>	<path class="st3" d="M87.6,93.4h2l1.3-3.3h6.5l1.3,3.3h2.1l-5.6-13.2h-2L87.6,93.4L87.6,93.4z M96.8,88.6h-5.3l2.6-6.5L96.8,88.6  L96.8,88.6z"></path>	<polygon class="st4" points="107.9,93.4 115.3,93.4 115.3,91.8 109.8,91.8 109.8,80.2 107.9,80.2 107.9,93.4  "></polygon>	<path class="st3" d="M115.9,93.4h2l1.3-3.3h6.5l1.3,3.3h2.1l-5.6-13.2h-2L115.9,93.4L115.9,93.4z M125.1,88.6h-5.3l2.6-6.5  L125.1,88.6L125.1,88.6z"></path>	<path class="st4" d="M146.5,80.7c-1.1-0.4-1.9-0.7-3.9-0.7c-4,0-7,2.7-7,6.8c0,4.2,2.8,6.9,7,6.9c2.1,0,3.3-0.3,4-0.6v-6.9h-4.7  v1.6h2.8v4c-0.5,0.1-0.8,0.2-2.1,0.2c-2.7,0-5-2.1-5-5.2c0-2.9,2-5.2,5.1-5.2c1.7,0,2.7,0.3,3.6,0.9L146.5,80.7L146.5,80.7z"></path>	<polygon class="st4" points="150,93.4 157.4,93.4 157.4,91.8 151.9,91.8 151.9,87.4 156.9,87.4 156.9,85.8 151.9,85.8 151.9,81.9   157.4,81.9 157.4,80.2 150,80.2 150,93.4  "></polygon>	<path class="st4" d="M166.7,80.5c-0.9-0.3-1.9-0.5-2.8-0.5c-2.4,0-4.2,1.2-4.2,3.6c0,4.1,5.7,3.3,5.7,6.2c0,1.6-1.5,2.2-2.6,2.2  c-1,0-2.1-0.4-2.7-0.6l-0.2,1.8c0.9,0.3,1.8,0.5,2.7,0.5c2.6,0,4.8-1.1,4.8-3.9c0-4.3-5.7-3.8-5.7-6.3c0-1.4,1.2-1.8,2.3-1.8  c1,0,1.5,0.2,2.5,0.5L166.7,80.5L166.7,80.5z"></path>	<polygon class="st4" points="172.5,93.4 174.4,93.4 174.4,81.9 178.5,81.9 178.5,80.2 168.4,80.2 168.4,81.9 172.5,81.9   172.5,93.4  "></polygon>	<polygon class="st4" points="180.4,93.4 182.3,93.4 182.3,80.2 180.4,80.2 180.4,93.4  "></polygon>	<path class="st3" d="M190.1,79.3h1.3l2.5-2.7h-2.1L190.1,79.3L190.1,79.3z M187,86.8c0-2.7,1.4-5.2,4.3-5.2c2.9,0,4.3,2.5,4.3,5.2  c0,2.6-1.3,5.2-4.3,5.2C188.3,92,187,89.5,187,86.8L187,86.8z M185,86.8c0,4,2.3,6.8,6.4,6.8c4,0,6.4-2.8,6.4-6.8  c0-3.9-2.3-6.8-6.4-6.8C187.4,80,185,82.9,185,86.8L185,86.8z"></path>	<path class="st3" d="M205.5,93.4h3.9c4.3,0,7-2.3,7-6.7c0-4.1-3.1-6.5-7-6.5h-3.9V93.4L205.5,93.4z M207.4,81.9h2.2  c2.7,0,4.8,1.8,4.8,4.9c0,3.4-1.8,5-5,5h-2V81.9L207.4,81.9z"></path>	<polygon class="st4" points="219.4,93.4 226.8,93.4 226.8,91.8 221.3,91.8 221.3,87.4 226.3,87.4 226.3,85.8 221.3,85.8   221.3,81.9 226.8,81.9 226.8,80.2 219.4,80.2 219.4,93.4  "></polygon>	<path class="st3" d="M235,93.4h1.9v-5.9h1.1c1,0,1.6,0,2.2,1.3l2,4.6h2.2l-2.5-5.3c-0.4-0.8-0.7-1.1-1.3-1.3v0  c1.5-0.3,2.7-1.4,2.7-3c0-3.2-2.5-3.6-5.1-3.6H235V93.4L235,93.4z M236.9,81.9h1.8c1.7,0,2.6,0.8,2.6,1.9c0,1.3-1.1,2.1-2.9,2.1  h-1.6V81.9L236.9,81.9z"></path>	<polygon class="st4" points="246.7,93.4 254.1,93.4 254.1,91.8 248.6,91.8 248.6,87.4 253.6,87.4 253.6,85.8 248.6,85.8   248.6,81.9 254.1,81.9 254.1,80.2 246.7,80.2 246.7,93.4  "></polygon>	<path class="st4" d="M263.4,80.5c-0.9-0.3-1.9-0.5-2.8-0.5c-2.4,0-4.2,1.2-4.2,3.6c0,4.1,5.7,3.3,5.7,6.2c0,1.6-1.5,2.2-2.6,2.2  c-1,0-2.1-0.4-2.7-0.6l-0.2,1.8c0.9,0.3,1.8,0.5,2.7,0.5c2.6,0,4.8-1.1,4.8-3.9c0-4.3-5.7-3.8-5.7-6.3c0-1.4,1.2-1.8,2.3-1.8  c1,0,1.5,0.2,2.5,0.5L263.4,80.5L263.4,80.5z"></path>	<polygon class="st4" points="266.6,93.4 268.5,93.4 268.5,80.2 266.6,80.2 266.6,93.4  "></polygon>	<path class="st3" d="M271.7,93.4h3.9c4.3,0,7-2.3,7-6.7c0-4.1-3.1-6.5-7-6.5h-3.9V93.4L271.7,93.4z M273.6,81.9h2.2  c2.7,0,4.8,1.8,4.8,4.9c0,3.4-1.8,5-5,5h-2V81.9L273.6,81.9z"></path>	<path class="st4" d="M295.8,80.2h-1.9v7.5c0,2.5-0.8,4.3-3.2,4.3c-2.4,0-3.2-1.7-3.2-4.3v-7.5h-1.9V88c0,3.7,1.9,5.7,5.1,5.7  c3.3,0,5.1-2,5.1-5.7V80.2L295.8,80.2z"></path>	<path class="st4" d="M305.4,80.5c-0.9-0.3-1.9-0.5-2.8-0.5c-2.4,0-4.2,1.2-4.2,3.6c0,4.1,5.7,3.3,5.7,6.2c0,1.6-1.5,2.2-2.6,2.2  c-1,0-2.1-0.4-2.7-0.6l-0.2,1.8c0.9,0.3,1.8,0.5,2.7,0.5c2.6,0,4.8-1.1,4.8-3.9c0-4.3-5.7-3.8-5.7-6.3c0-1.4,1.2-1.8,2.3-1.8  c1,0,1.5,0.2,2.5,0.5L305.4,80.5L305.4,80.5z"></path>	<path class="st4" d="M122.3,53.7c-1.2-0.5-2.5-0.7-3.8-0.7c-5.2,0-9,3.5-9,8.7c0,5.4,3.6,8.9,9,8.9c1,0,2.6-0.1,3.9-0.6l-0.1-2.4  c-0.9,0.5-2.5,0.8-3.7,0.8c-3.5,0-6.4-2.7-6.4-6.7c0-3.8,2.6-6.7,6.5-6.7c1.2,0,2.4,0.3,3.5,1L122.3,53.7L122.3,53.7z"></path>	<path class="st3" d="M126.1,63.7c0-2.7,1.4-5.2,4.3-5.2c2.9,0,4.3,2.5,4.3,5.2c0,2.6-1.3,5.2-4.3,5.2  C127.4,68.9,126.1,66.3,126.1,63.7L126.1,63.7z M124.1,63.7c0,4,2.3,6.8,6.4,6.8c4,0,6.4-2.8,6.4-6.8c0-3.9-2.3-6.8-6.4-6.8  C126.4,56.9,124.1,59.8,124.1,63.7L124.1,63.7z"></path>	<polygon class="st4" points="139.5,70.3 141.3,70.3 141.3,59.5 141.4,59.5 147.4,70.3 149.8,70.3 149.8,57.1 147.9,57.1   147.9,67.7 147.8,67.7 142,57.1 139.5,57.1 139.5,70.3  "></polygon>	<path class="st4" d="M159.4,57.4c-0.9-0.3-1.9-0.5-2.8-0.5c-2.4,0-4.2,1.2-4.2,3.6c0,4.1,5.7,3.3,5.7,6.2c0,1.6-1.5,2.2-2.6,2.2  c-1,0-2.1-0.4-2.7-0.6l-0.2,1.8c0.9,0.3,1.8,0.5,2.7,0.5c2.6,0,4.8-1.1,4.8-3.9c0-4.3-5.7-3.8-5.7-6.3c0-1.4,1.2-1.8,2.3-1.8  c1,0,1.5,0.2,2.5,0.5L159.4,57.4L159.4,57.4z"></path>	<path class="st3" d="M163.9,63.7c0-2.7,1.4-5.2,4.3-5.2c2.9,0,4.3,2.5,4.3,5.2c0,2.6-1.3,5.2-4.3,5.2  C165.2,68.9,163.9,66.3,163.9,63.7L163.9,63.7z M161.9,63.7c0,4,2.3,6.8,6.4,6.8c4,0,6.4-2.8,6.4-6.8c0-3.9-2.3-6.8-6.4-6.8  C164.2,56.9,161.9,59.8,161.9,63.7L161.9,63.7z"></path>	<path class="st3" d="M177.2,70.3h1.9v-5.9h1.1c1,0,1.6,0,2.2,1.3l2,4.6h2.2l-2.5-5.3c-0.4-0.8-0.7-1.1-1.3-1.3v0  c1.5-0.3,2.7-1.4,2.7-3c0-3.2-2.5-3.6-5.1-3.6h-3.2V70.3L177.2,70.3z M179.1,58.8h1.8c1.7,0,2.6,0.8,2.6,1.9c0,1.3-1.1,2.1-2.9,2.1  h-1.6V58.8L179.1,58.8z"></path>	<path class="st4" d="M198.1,57.5c-0.9-0.4-1.9-0.6-3-0.6c-4,0-7,2.7-7,6.8c0,4.2,2.8,6.9,7,6.9c0.8,0,2-0.1,3-0.5l-0.1-1.8  c-0.7,0.4-1.9,0.6-2.9,0.6c-2.7,0-5-2.1-5-5.2c0-3,2-5.2,5.1-5.2c1,0,1.9,0.2,2.7,0.7L198.1,57.5L198.1,57.5z"></path>	<polygon class="st4" points="200.4,70.3 202.3,70.3 202.3,57.1 200.4,57.1 200.4,70.3  "></polygon>	<path class="st3" d="M210.8,70.3h3.9c4.3,0,7-2.3,7-6.7c0-4.1-3.1-6.5-7-6.5h-3.9V70.3L210.8,70.3z M212.7,58.8h2.2  c2.7,0,4.8,1.8,4.8,4.9c0,3.4-1.8,5-5,5h-2V58.8L212.7,58.8z"></path>	<polygon class="st4" points="224.7,70.3 232,70.3 232,68.7 226.5,68.7 226.5,64.3 231.6,64.3 231.6,62.6 226.5,62.6 226.5,58.8   232,58.8 232,57.1 224.7,57.1 224.7,70.3  "></polygon>	<polygon class="st4" points="235.1,70.3 242.5,70.3 242.5,68.7 236.9,68.7 236.9,57.1 235.1,57.1 235.1,70.3  "></polygon>	<path class="st3" d="M249.7,70.3h3.5c2.7,0,5-0.7,5-3.5c0-1.9-1.3-3-3.1-3.2v0c1.7-0.4,2.7-1.3,2.7-3.1c0-2.4-1.9-3.3-4.6-3.3h-3.6  V70.3L249.7,70.3z M251.6,64.3h1.2c1.6,0,3.4,0.3,3.4,2.3c0,1.8-1.5,2.1-3.2,2.1h-1.4V64.3L251.6,64.3z M251.6,58.7h2  c1.1,0,2.4,0.4,2.4,2c0,1.9-1.6,2.1-3.4,2.1h-1V58.7L251.6,58.7z"></path>	<path class="st3" d="M259.9,70.3h2l1.3-3.3h6.5l1.3,3.3h2.1l-5.6-13.2h-2L259.9,70.3L259.9,70.3z M269.1,65.4h-5.3l2.6-6.5  L269.1,65.4L269.1,65.4z"></path>	<path class="st4" d="M285.2,57.6c-1.1-0.4-1.9-0.7-3.9-0.7c-4,0-7,2.7-7,6.8c0,4.2,2.8,6.9,7,6.9c2.1,0,3.3-0.3,4-0.6v-6.9h-4.7  v1.6h2.8v4c-0.5,0.1-0.8,0.2-2.1,0.2c-2.7,0-5-2.1-5-5.2c0-2.9,2-5.2,5.1-5.2c1.7,0,2.7,0.3,3.6,0.9L285.2,57.6L285.2,57.6z"></path>	<polygon class="st4" points="288.7,70.3 296.1,70.3 296.1,68.7 290.6,68.7 290.6,64.3 295.6,64.3 295.6,62.6 290.6,62.6   290.6,58.8 296.1,58.8 296.1,57.1 288.7,57.1 288.7,70.3  "></polygon>	<path class="st4" d="M305.4,57.4c-0.9-0.3-1.9-0.5-2.8-0.5c-2.4,0-4.2,1.2-4.2,3.6c0,4.1,5.7,3.3,5.7,6.2c0,1.6-1.5,2.2-2.6,2.2  c-1,0-2.1-0.4-2.7-0.6l-0.2,1.8c0.9,0.3,1.8,0.5,2.7,0.5c2.6,0,4.8-1.1,4.8-3.9c0-4.3-5.7-3.8-5.7-6.3c0-1.4,1.2-1.8,2.3-1.8  c1,0,1.5,0.2,2.5,0.5L305.4,57.4L305.4,57.4z"></path></g></svg>